<svg width="218" height="67" fill="none" xmlns="http://www.w3.org/2000/svg"><path stroke="#8C93D1" stroke-width="10" d="M6 61V40"/><path d="M1.683 38.259a5 5 0 106.634 7.482L1.683 38.26zm43.515-25.22l3.741-3.317-6.634-7.482-3.742 3.317 6.635 7.483zM8.318 45.742l36.88-32.701-6.635-7.483L1.683 38.26l6.634 7.482z" fill="#8C93D1"/><path stroke="#8C93D1" stroke-width="10" d="M38.669 5.603l25 27"/><path stroke="#FFC239" stroke-width="10" d="M45 62V42"/><path d="M41.333 41.238a5 5 0 006.35 7.725l-6.35-7.725zm47.842-26.375l3.862-3.175-6.349-7.726-3.863 3.175 6.35 7.726zm-41.492 34.1l41.492-34.1-6.35-7.726-41.492 34.1 6.35 7.726z" fill="#FFC239"/><path stroke="#FFC239" stroke-width="10" d="M83.7 6.637l20 22"/><path stroke="#8C93D1" stroke-width="10" d="M20 28V11"/><path d="M88.772 49.363V52H75.82v-2.637h12.952zm-12.037 0v6.995H73.55l-.158-6.995h3.344zm14.539 0l-.256 7.007h-3.113v-7.007h3.369zm-4.59-15.136v2.649H78.31v-2.65h8.374zm2.478 0V52h-3.345V34.227h3.345zm-11.39 0h3.358l-.452 7.226a22.914 22.914 0 01-.366 3.113c-.17.911-.382 1.721-.635 2.43-.252.707-.533 1.33-.842 1.867a8.39 8.39 0 01-.964 1.38 7.63 7.63 0 01-1.038 1.012c-.35.277-.696.525-1.038.745h-1.867v-2.637h.805c.236-.203.485-.488.745-.854.269-.366.525-.85.77-1.453.251-.602.471-1.363.658-2.283.187-.92.322-2.026.403-3.32l.464-7.226zm29.701 8.435v.915c0 1.343-.179 2.551-.537 3.626-.359 1.066-.867 1.973-1.526 2.722a6.671 6.671 0 01-2.356 1.721c-.912.399-1.925.598-3.04.598-1.099 0-2.108-.2-3.027-.598a6.777 6.777 0 01-2.368-1.721c-.668-.749-1.184-1.656-1.55-2.722-.367-1.075-.55-2.283-.55-3.626v-.915c0-1.351.183-2.56.55-3.626.366-1.066.878-1.973 1.537-2.722a6.592 6.592 0 012.356-1.733c.92-.4 1.93-.599 3.028-.599 1.115 0 2.128.2 3.039.599a6.586 6.586 0 012.356 1.733c.668.749 1.18 1.656 1.538 2.722.367 1.066.55 2.275.55 3.626zm-3.394.915v-.94c0-.968-.089-1.819-.268-2.551-.179-.74-.444-1.363-.794-1.868a3.379 3.379 0 00-1.294-1.135c-.513-.26-1.09-.39-1.733-.39-.651 0-1.23.13-1.734.39-.496.252-.92.63-1.27 1.135s-.618 1.127-.805 1.868c-.179.732-.268 1.583-.268 2.551v.94c0 .96.09 1.81.268 2.551.187.741.456 1.368.806 1.88.358.505.79.887 1.294 1.148.504.26 1.082.39 1.733.39s1.229-.13 1.734-.39c.504-.26.927-.643 1.269-1.148.35-.512.615-1.139.794-1.88.179-.74.268-1.59.268-2.55zm7.703-9.35h2.905l4.858 13.379 4.847-13.38h2.917L120.705 52h-2.331l-6.592-17.773zm-1.465 0h2.844l.513 12.292V52h-3.357V34.227zm15.6 0h2.857V52h-3.357v-5.481l.5-12.292z" fill="#FFC239"/><path d="M143.097 45.153h3.357c-.089 1.188-.419 2.242-.989 3.162-.569.91-1.363 1.627-2.38 2.148-1.017.52-2.25.781-3.699.781-1.115 0-2.12-.195-3.015-.586a6.53 6.53 0 01-2.283-1.697c-.626-.74-1.106-1.627-1.44-2.66-.334-1.042-.501-2.21-.501-3.504v-1.355c0-1.294.171-2.462.513-3.504.342-1.041.83-1.928 1.465-2.66a6.55 6.55 0 012.307-1.71c.903-.398 1.913-.598 3.027-.598 1.449 0 2.674.269 3.675.806 1.001.529 1.778 1.257 2.331 2.185.554.928.887 1.994 1.001 3.198h-3.357c-.065-.748-.227-1.383-.488-1.904a2.568 2.568 0 00-1.147-1.184c-.505-.277-1.176-.415-2.015-.415-.651 0-1.224.122-1.721.366a3.14 3.14 0 00-1.22 1.099c-.326.48-.57 1.082-.733 1.806-.163.716-.244 1.547-.244 2.49v1.38c0 .903.073 1.713.22 2.43.146.715.374 1.322.683 1.818.31.496.708.875 1.197 1.135.488.26 1.07.39 1.745.39.822 0 1.489-.13 2.002-.39.521-.26.916-.643 1.184-1.147.277-.505.452-1.132.525-1.88zm13.22-11.926V51h-3.344V33.227h3.344zm5.518 0v2.649h-14.319v-2.65h14.319zm9.07 11.291h-4.578v-2.637h4.578c.748 0 1.355-.122 1.819-.366.472-.252.818-.594 1.037-1.025.22-.44.33-.94.33-1.502 0-.545-.11-1.054-.33-1.526a2.648 2.648 0 00-1.037-1.147c-.464-.293-1.071-.44-1.819-.44h-3.479V51h-3.357V33.227h6.836c1.383 0 2.563.248 3.54.744.985.489 1.733 1.168 2.246 2.039.521.862.781 1.847.781 2.954 0 1.147-.26 2.136-.781 2.966-.513.83-1.261 1.47-2.246 1.917-.977.447-2.157.671-3.54.671zm23.596-2.856v.915c0 1.343-.179 2.551-.537 3.626-.358 1.066-.867 1.973-1.526 2.722a6.662 6.662 0 01-2.356 1.721c-.911.399-1.925.598-3.04.598-1.098 0-2.107-.2-3.027-.598a6.778 6.778 0 01-2.368-1.721c-.667-.749-1.184-1.656-1.55-2.722-.367-1.075-.55-2.283-.55-3.626v-.915c0-1.351.183-2.56.55-3.626.366-1.066.879-1.973 1.538-2.722a6.586 6.586 0 012.356-1.733c.919-.4 1.928-.599 3.027-.599 1.115 0 2.128.2 3.04.599a6.604 6.604 0 012.356 1.733c.667.749 1.18 1.656 1.538 2.722.366 1.066.549 2.275.549 3.626zm-3.394.915v-.94c0-.968-.089-1.819-.268-2.551-.179-.74-.444-1.363-.794-1.868a3.379 3.379 0 00-1.294-1.135c-.512-.26-1.09-.39-1.733-.39-.651 0-1.229.13-1.733.39-.497.252-.92.63-1.27 1.135s-.618 1.127-.806 1.868c-.179.732-.268 1.583-.268 2.551v.94c0 .96.089 1.81.268 2.551.188.741.456 1.368.806 1.88.358.505.79.887 1.294 1.148.505.26 1.082.39 1.733.39.652 0 1.229-.13 1.734-.39.504-.26.928-.643 1.269-1.148.35-.512.615-1.139.794-1.88.179-.74.268-1.59.268-2.55zm9.522 3.052l7.507-12.402h3.369V51h-3.369V38.598L200.629 51h-3.357V33.227h3.357v12.402zm5.554-17.004h2.344c0 .683-.167 1.29-.501 1.818-.333.53-.809.944-1.428 1.245-.61.293-1.334.44-2.173.44-1.261 0-2.262-.326-3.003-.977-.74-.65-1.11-1.493-1.11-2.526h2.343c0 .43.135.817.403 1.16.269.341.724.512 1.367.512s1.095-.171 1.355-.513c.269-.342.403-.728.403-1.16z" fill="#8C93D1"/></svg>