<svg width="141" height="141" fill="none" xmlns="http://www.w3.org/2000/svg"><circle cx="70.5" cy="70.5" r="70" fill="#fff" stroke="#D79500"/><path d="M43.423 61.182c0 1.269-.24 2.348-.721 3.239-.478.89-1.13 1.57-1.955 2.04-.822.465-1.746.698-2.773.698-1.034 0-1.962-.235-2.784-.705-.822-.47-1.471-1.15-1.948-2.04-.478-.89-.716-1.967-.716-3.232 0-1.27.238-2.349.715-3.239.478-.89 1.127-1.568 1.95-2.034.821-.47 1.75-.704 2.783-.704 1.027 0 1.951.234 2.773.704.826.466 1.477 1.144 1.955 2.034.48.89.721 1.97.721 3.239zm-2.494 0c0-.822-.123-1.515-.37-2.08-.242-.564-.585-.992-1.028-1.284-.443-.291-.962-.437-1.557-.437-.594 0-1.113.145-1.556.437-.444.292-.788.72-1.035 1.284-.242.565-.363 1.258-.363 2.08 0 .822.121 1.515.363 2.08.247.564.591.992 1.035 1.284.443.291.962.437 1.556.437.595 0 1.114-.146 1.557-.438.443-.291.786-.72 1.029-1.284.246-.564.369-1.257.369-2.08zm8.215 5.989c-.895 0-1.663-.19-2.307-.569a3.841 3.841 0 01-1.478-1.59c-.34-.679-.511-1.459-.511-2.342 0-.894.172-1.678.517-2.352a3.84 3.84 0 011.483-1.585c.64-.383 1.401-.574 2.284-.574.762 0 1.428.138 2 .415a3.343 3.343 0 011.358 1.165c.333.5.517 1.087.551 1.761h-2.284c-.064-.436-.235-.786-.511-1.051-.273-.27-.63-.404-1.074-.404-.375 0-.703.103-.983.307-.277.201-.492.495-.648.881-.155.386-.233.854-.233 1.403 0 .557.076 1.03.227 1.42.156.391.374.688.654.893.28.204.608.307.983.307.276 0 .525-.057.744-.17.224-.114.407-.28.551-.495.148-.22.245-.483.29-.79h2.284c-.038.667-.22 1.254-.545 1.761a3.294 3.294 0 01-1.336 1.182c-.568.284-1.24.427-2.016.427zm4.852-6.995v-1.903h7.909v1.903h-2.813V67h-2.306v-6.824h-2.79zm11.552 6.989c-.556 0-1.053-.097-1.488-.29a2.397 2.397 0 01-1.034-.87c-.25-.386-.375-.867-.375-1.442 0-.485.089-.893.267-1.222.178-.33.42-.595.727-.796a3.54 3.54 0 011.045-.454 7.972 7.972 0 011.239-.216c.508-.053.917-.102 1.227-.148.31-.049.536-.12.676-.216a.475.475 0 00.21-.42v-.034c0-.36-.113-.638-.34-.835-.224-.197-.542-.296-.955-.296-.435 0-.782.097-1.04.29-.257.19-.428.428-.511.716l-2.239-.182c.114-.53.337-.989.67-1.375.334-.39.764-.69 1.29-.898.53-.212 1.145-.318 1.841-.318.485 0 .95.057 1.393.17.447.114.842.29 1.187.529.349.239.623.545.824.92.2.372.301.817.301 1.336V67h-2.295v-1.21h-.069c-.14.272-.327.513-.562.721a2.603 2.603 0 01-.847.483c-.33.114-.71.17-1.142.17zm.694-1.67c.355 0 .67-.07.943-.21a1.67 1.67 0 00.642-.58c.155-.243.233-.517.233-.824v-.926c-.076.049-.18.094-.313.136a5.704 5.704 0 01-.437.108c-.163.03-.326.059-.489.085l-.443.063a2.992 2.992 0 00-.745.198 1.19 1.19 0 00-.494.37.9.9 0 00-.176.568c0 .33.12.581.358.756.242.17.55.255.92.255zM72.34 67v-8.727h3.722c1.075 0 1.926.204 2.55.613.626.41.938.99.938 1.745 0 .473-.176.867-.528 1.181-.352.315-.841.527-1.466.637.522.038.968.157 1.335.358.371.197.654.453.847.767.197.314.295.663.295 1.045 0 .496-.133.923-.398 1.279-.261.356-.645.629-1.153.818-.504.19-1.12.284-1.847.284H72.34zm2.256-1.813h2.04c.337 0 .6-.079.79-.238.192-.163.289-.385.289-.665 0-.31-.097-.555-.29-.733-.19-.178-.453-.267-.79-.267h-2.04v1.904zm0-3.323h1.517c.242 0 .448-.034.619-.103a.868.868 0 00.398-.306.79.79 0 00.142-.472.728.728 0 00-.324-.63c-.216-.152-.511-.228-.886-.228h-1.466v1.739zm9.275 1.943l3.142-5.534H89.4V67h-2.307v-5.551L83.964 67H81.56v-8.727h2.312v5.534zm6.593-3.63v-1.904h7.909v1.903H95.56V67h-2.307v-6.824h-2.79zm10.893.778h2.608c1.155 0 2.057.276 2.704.83.648.548.972 1.283.972 2.204 0 .598-.146 1.125-.437 1.58-.292.45-.713.802-1.262 1.056-.549.25-1.208.375-1.977.375H99.84v-8.727h2.312v6.824h1.813c.405 0 .739-.103 1-.307a.971.971 0 00.398-.784 1.03 1.03 0 00-.398-.824c-.261-.216-.595-.324-1-.324h-2.608v-1.903zM42.986 83.528h2.346c.012.288.14.516.387.682.246.167.564.25.954.25.394 0 .726-.09.995-.272.269-.186.403-.451.403-.796a.953.953 0 00-.16-.551 1.08 1.08 0 00-.442-.375 1.511 1.511 0 00-.66-.136h-1.255v-1.586h1.256c.375 0 .662-.087.863-.261a.824.824 0 00.307-.654.88.88 0 00-.318-.71c-.208-.181-.49-.272-.847-.272-.36 0-.659.081-.897.244-.235.159-.356.367-.364.625h-2.335c.007-.523.164-.975.471-1.358.31-.383.728-.678 1.25-.886a4.768 4.768 0 011.767-.313c.712 0 1.326.1 1.841.301.52.197.917.48 1.194.847.28.367.42.805.42 1.312 0 .462-.152.849-.455 1.16-.303.31-.727.532-1.272.664v.091c.36.023.685.12.977.29.292.17.525.405.699.704.174.296.261.646.261 1.051 0 .542-.159 1.006-.477 1.393-.315.386-.75.683-1.307.892-.553.204-1.187.306-1.903.306-.697 0-1.322-.1-1.875-.3-.55-.205-.987-.505-1.313-.898-.322-.394-.492-.875-.511-1.444zm11.36 2.637c-.558 0-1.054-.097-1.49-.29a2.397 2.397 0 01-1.034-.87c-.25-.386-.375-.867-.375-1.442 0-.485.09-.892.267-1.222.178-.33.42-.595.728-.795a3.516 3.516 0 011.045-.455 7.97 7.97 0 011.239-.216c.507-.053.916-.102 1.227-.148.31-.049.536-.12.676-.216a.475.475 0 00.21-.42v-.034c0-.36-.113-.638-.34-.835-.224-.197-.542-.296-.955-.296-.436 0-.782.097-1.04.29-.257.19-.428.428-.511.716l-2.239-.182c.114-.53.337-.989.67-1.375.334-.39.764-.69 1.29-.898.53-.212 1.144-.318 1.841-.318.485 0 .95.057 1.392.17.447.114.843.29 1.188.529.348.239.623.545.824.92.2.372.3.817.3 1.336V86h-2.294v-1.21h-.069c-.14.272-.327.513-.562.721a2.603 2.603 0 01-.847.483c-.33.114-.71.17-1.142.17zm.692-1.67c.356 0 .67-.07.944-.21a1.67 1.67 0 00.642-.58c.155-.243.232-.517.232-.824v-.927a1.27 1.27 0 01-.312.137 5.692 5.692 0 01-.438.108c-.162.03-.325.059-.488.085l-.443.063a2.991 2.991 0 00-.745.199 1.19 1.19 0 00-.494.369.9.9 0 00-.176.568c0 .33.12.581.358.756.242.17.55.255.92.255zM66.251 86v-6.83h-1.636c-.443 0-.78.103-1.011.307-.231.205-.345.447-.341.727a.909.909 0 00.33.722c.227.193.56.29 1 .29h2.465v1.636h-2.466c-.746 0-1.392-.113-1.937-.34-.546-.228-.966-.544-1.261-.95a2.342 2.342 0 01-.438-1.426c-.004-.568.142-1.066.438-1.494.295-.432.717-.767 1.267-1.006.553-.242 1.204-.363 1.954-.363h3.892V86h-2.256zm-5.545 0l2.426-4.546h2.313L63.025 86h-2.319zm9.682 0v-8.727h3.721c1.076 0 1.927.204 2.552.613.624.41.937.99.937 1.745 0 .473-.176.867-.528 1.181-.353.315-.841.527-1.466.637.522.038.968.157 1.335.358.371.197.653.453.847.767.197.314.295.663.295 1.045 0 .496-.133.923-.398 1.279-.261.356-.646.629-1.153.818-.504.19-1.12.284-1.847.284h-4.295zm2.255-1.813h2.04c.337 0 .6-.079.79-.238.193-.163.29-.385.29-.665 0-.31-.097-.555-.29-.733-.19-.178-.453-.267-.79-.267h-2.04v1.903zm0-3.323h1.517c.243 0 .45-.035.62-.103a.868.868 0 00.398-.306.79.79 0 00.142-.472.728.728 0 00-.324-.63c-.216-.152-.512-.228-.887-.228h-1.465v1.739zM79.606 86v-8.727h2.421v3.386h.682l2.375-3.386h2.84l-3.085 4.33L87.96 86h-2.875l-2.154-3.097h-.903V86h-2.42zm11.01 3.273a4.8 4.8 0 01-.863-.074 3.145 3.145 0 01-.66-.176l.546-1.807c.284.087.54.134.767.142a.975.975 0 00.597-.16c.17-.113.309-.306.415-.579l.142-.369-3.131-8.977h2.545l1.807 6.409h.091l1.824-6.41h2.563l-3.392 9.671c-.163.47-.385.879-.665 1.228a2.726 2.726 0 01-1.051.812c-.425.193-.936.29-1.534.29z" fill="#212864"/></svg>