<svg width="218" height="67" viewBox="0 0 218 67" fill="none" xmlns="http://www.w3.org/2000/svg">
<line x1="6" y1="61" x2="6" y2="40" stroke="#8C93D1" stroke-width="10"/>
<path d="M1.68279 38.2589C-0.383382 40.0909 -0.573184 43.251 1.25886 45.3172C3.0909 47.3834 6.25103 47.5732 8.31721 45.7411L1.68279 38.2589ZM45.1979 13.0397L48.939 9.72245L42.3046 2.24017L38.5635 5.55738L45.1979 13.0397ZM8.31721 45.7411L45.1979 13.0397L38.5635 5.55738L1.68279 38.2589L8.31721 45.7411Z" fill="#8C93D1"/>
<line x1="38.6688" y1="5.60296" x2="63.6688" y2="32.603" stroke="#8C93D1" stroke-width="10"/>
<line x1="45" y1="62" x2="45" y2="42" stroke="#FFC239" stroke-width="10"/>
<path d="M41.3331 41.2377C39.1998 42.991 38.8917 46.1418 40.645 48.2752C42.3983 50.4086 45.5491 50.7167 47.6825 48.9634L41.3331 41.2377ZM89.1747 14.8628L93.0375 11.6881L86.6881 3.9625L82.8253 7.13718L89.1747 14.8628ZM47.6825 48.9634L89.1747 14.8628L82.8253 7.13718L41.3331 41.2377L47.6825 48.9634Z" fill="#FFC239"/>
<line x1="83.6997" y1="6.63664" x2="103.7" y2="28.6366" stroke="#FFC239" stroke-width="10"/>
<line x1="20" y1="28" x2="20" y2="11" stroke="#8C93D1" stroke-width="10"/>
<path d="M88.7715 49.3633V52H75.8198V49.3633H88.7715ZM76.7354 49.3633V56.3579H73.5493L73.3906 49.3633H76.7354ZM91.2739 49.3633L91.0176 56.3701H87.9048V49.3633H91.2739ZM86.6841 34.2266V36.8755H78.3101V34.2266H86.6841ZM89.1621 34.2266V52H85.8174V34.2266H89.1621ZM77.7729 34.2266H81.1299L80.6782 41.4531C80.6131 42.6169 80.491 43.6545 80.312 44.5659C80.1411 45.4774 79.9295 46.2871 79.6772 46.9951C79.425 47.7031 79.1442 48.3257 78.835 48.8628C78.5339 49.3918 78.2124 49.8516 77.8706 50.2422C77.5369 50.6328 77.1911 50.9705 76.833 51.2554C76.4831 51.5321 76.1372 51.7803 75.7954 52H73.9277V49.3633H74.7334C74.9694 49.1598 75.2176 48.875 75.478 48.5088C75.7466 48.1426 76.0029 47.6584 76.2471 47.0562C76.4993 46.4539 76.7191 45.693 76.9062 44.7734C77.0934 43.8538 77.2277 42.7471 77.3091 41.4531L77.7729 34.2266ZM107.473 42.6616V43.5771C107.473 44.9199 107.294 46.1284 106.936 47.2026C106.577 48.2687 106.069 49.1761 105.41 49.9248C104.75 50.6735 103.965 51.2472 103.054 51.646C102.142 52.0448 101.129 52.2441 100.014 52.2441C98.9155 52.2441 97.9064 52.0448 96.9868 51.646C96.0754 51.2472 95.286 50.6735 94.6187 49.9248C93.9513 49.1761 93.4346 48.2687 93.0684 47.2026C92.7021 46.1284 92.519 44.9199 92.519 43.5771V42.6616C92.519 41.3107 92.7021 40.1022 93.0684 39.0361C93.4346 37.9701 93.9473 37.0627 94.6064 36.314C95.2656 35.5571 96.0509 34.9793 96.9624 34.5806C97.882 34.1818 98.8911 33.9824 99.9897 33.9824C101.105 33.9824 102.118 34.1818 103.029 34.5806C103.941 34.9793 104.726 35.5571 105.385 36.314C106.053 37.0627 106.565 37.9701 106.923 39.0361C107.29 40.1022 107.473 41.3107 107.473 42.6616ZM104.079 43.5771V42.6372C104.079 41.6688 103.99 40.8184 103.811 40.0859C103.632 39.3454 103.367 38.7228 103.017 38.2183C102.667 37.7137 102.236 37.3353 101.723 37.083C101.21 36.8226 100.633 36.6924 99.9897 36.6924C99.3387 36.6924 98.7609 36.8226 98.2563 37.083C97.7599 37.3353 97.3368 37.7137 96.9868 38.2183C96.6369 38.7228 96.3683 39.3454 96.1812 40.0859C96.0021 40.8184 95.9126 41.6688 95.9126 42.6372V43.5771C95.9126 44.5374 96.0021 45.3879 96.1812 46.1284C96.3683 46.869 96.6369 47.4956 96.9868 48.0083C97.3449 48.5129 97.7762 48.8953 98.2808 49.1558C98.7853 49.4162 99.3631 49.5464 100.014 49.5464C100.665 49.5464 101.243 49.4162 101.748 49.1558C102.252 48.8953 102.675 48.5129 103.017 48.0083C103.367 47.4956 103.632 46.869 103.811 46.1284C103.99 45.3879 104.079 44.5374 104.079 43.5771ZM111.782 34.2266H114.687L119.545 47.6055L124.392 34.2266H127.309L120.705 52H118.374L111.782 34.2266ZM110.317 34.2266H113.161L113.674 46.519V52H110.317V34.2266ZM125.917 34.2266H128.774V52H125.417V46.519L125.917 34.2266Z" fill="#FFC239"/>
<path d="M143.097 45.1528H146.454C146.365 46.341 146.035 47.3949 145.465 48.3145C144.896 49.2259 144.102 49.9421 143.085 50.4629C142.068 50.9837 140.835 51.2441 139.386 51.2441C138.271 51.2441 137.266 51.0488 136.371 50.6582C135.484 50.2594 134.723 49.6938 134.088 48.9614C133.462 48.2209 132.982 47.3338 132.648 46.3003C132.314 45.2586 132.147 44.0908 132.147 42.7969V41.4419C132.147 40.1479 132.318 38.9801 132.66 37.9385C133.002 36.8968 133.49 36.0098 134.125 35.2773C134.768 34.5368 135.537 33.9671 136.432 33.5684C137.335 33.1696 138.345 32.9702 139.459 32.9702C140.908 32.9702 142.133 33.2388 143.134 33.7759C144.135 34.3049 144.912 35.0332 145.465 35.9609C146.019 36.8887 146.352 37.9548 146.466 39.1592H143.109C143.044 38.4105 142.882 37.7757 142.621 37.2549C142.369 36.734 141.986 36.3394 141.474 36.0708C140.969 35.7941 140.298 35.6558 139.459 35.6558C138.808 35.6558 138.235 35.7778 137.738 36.022C137.25 36.2661 136.843 36.6323 136.518 37.1206C136.192 37.6007 135.948 38.203 135.785 38.9272C135.622 39.6434 135.541 40.4735 135.541 41.4175V42.7969C135.541 43.7002 135.614 44.5099 135.761 45.2261C135.907 45.9422 136.135 46.5485 136.444 47.0449C136.754 47.5413 137.152 47.9198 137.641 48.1802C138.129 48.4406 138.711 48.5708 139.386 48.5708C140.208 48.5708 140.875 48.4406 141.388 48.1802C141.909 47.9198 142.304 47.5373 142.572 47.0327C142.849 46.5282 143.024 45.9015 143.097 45.1528ZM156.317 33.2266V51H152.973V33.2266H156.317ZM161.835 33.2266V35.8755H147.516V33.2266H161.835ZM170.905 44.5181H166.327V41.8813H170.905C171.653 41.8813 172.26 41.7593 172.724 41.5151C173.196 41.2629 173.542 40.9211 173.761 40.4897C173.981 40.0503 174.091 39.5498 174.091 38.9883C174.091 38.443 173.981 37.9344 173.761 37.4624C173.542 36.9904 173.196 36.6079 172.724 36.3149C172.26 36.022 171.653 35.8755 170.905 35.8755H167.426V51H164.069V33.2266H170.905C172.288 33.2266 173.468 33.4748 174.445 33.9712C175.43 34.4595 176.178 35.139 176.691 36.0098C177.212 36.8724 177.472 37.8571 177.472 38.9639C177.472 40.1113 177.212 41.1001 176.691 41.9302C176.178 42.7603 175.43 43.3991 174.445 43.8467C173.468 44.2943 172.288 44.5181 170.905 44.5181ZM194.501 41.6616V42.5771C194.501 43.9199 194.322 45.1284 193.964 46.2026C193.606 47.2687 193.097 48.1761 192.438 48.9248C191.779 49.6735 190.993 50.2472 190.082 50.646C189.171 51.0448 188.157 51.2441 187.042 51.2441C185.944 51.2441 184.935 51.0448 184.015 50.646C183.104 50.2472 182.314 49.6735 181.647 48.9248C180.98 48.1761 180.463 47.2687 180.097 46.2026C179.73 45.1284 179.547 43.9199 179.547 42.5771V41.6616C179.547 40.3107 179.73 39.1022 180.097 38.0361C180.463 36.9701 180.976 36.0627 181.635 35.314C182.294 34.5571 183.079 33.9793 183.991 33.5806C184.91 33.1818 185.919 32.9824 187.018 32.9824C188.133 32.9824 189.146 33.1818 190.058 33.5806C190.969 33.9793 191.754 34.5571 192.414 35.314C193.081 36.0627 193.594 36.9701 193.952 38.0361C194.318 39.1022 194.501 40.3107 194.501 41.6616ZM191.107 42.5771V41.6372C191.107 40.6688 191.018 39.8184 190.839 39.0859C190.66 38.3454 190.395 37.7228 190.045 37.2183C189.695 36.7137 189.264 36.3353 188.751 36.083C188.239 35.8226 187.661 35.6924 187.018 35.6924C186.367 35.6924 185.789 35.8226 185.285 36.083C184.788 36.3353 184.365 36.7137 184.015 37.2183C183.665 37.7228 183.397 38.3454 183.209 39.0859C183.03 39.8184 182.941 40.6688 182.941 41.6372V42.5771C182.941 43.5374 183.03 44.3879 183.209 45.1284C183.397 45.869 183.665 46.4956 184.015 47.0083C184.373 47.5129 184.805 47.8953 185.309 48.1558C185.814 48.4162 186.391 48.5464 187.042 48.5464C187.694 48.5464 188.271 48.4162 188.776 48.1558C189.28 47.8953 189.704 47.5129 190.045 47.0083C190.395 46.4956 190.66 45.869 190.839 45.1284C191.018 44.3879 191.107 43.5374 191.107 42.5771ZM200.629 45.6289L208.136 33.2266H211.505V51H208.136V38.5977L200.629 51H197.272V33.2266H200.629V45.6289ZM206.183 28.6245H208.527C208.527 29.3081 208.36 29.9144 208.026 30.4434C207.693 30.9723 207.217 31.3874 206.598 31.6885C205.988 31.9814 205.264 32.1279 204.425 32.1279C203.164 32.1279 202.163 31.8024 201.422 31.1514C200.682 30.5003 200.312 29.658 200.312 28.6245H202.655C202.655 29.0558 202.79 29.4424 203.058 29.7842C203.327 30.126 203.782 30.2969 204.425 30.2969C205.068 30.2969 205.52 30.126 205.78 29.7842C206.049 29.4424 206.183 29.0558 206.183 28.6245Z" fill="#8C93D1"/>
</svg>
