<svg width="141" height="141" viewBox="0 0 141 141" fill="none" xmlns="http://www.w3.org/2000/svg">
<g id="Group 101">
<circle id="request_circle" cx="70.5" cy="70.5" r="70" fill="#ffffff" stroke="#D79500"/>
<path id="request_text" d="M43.4233 61.1818C43.4233 62.4508 43.1828 63.5303 42.7017 64.4205C42.2244 65.3106 41.5729 65.9905 40.7472 66.4602C39.9252 66.9261 39.0009 67.1591 37.9744 67.1591C36.9403 67.1591 36.0123 66.9242 35.1903 66.4545C34.3684 65.9848 33.7188 65.3049 33.2415 64.4148C32.7642 63.5246 32.5256 62.447 32.5256 61.1818C32.5256 59.9129 32.7642 58.8333 33.2415 57.9432C33.7188 57.053 34.3684 56.375 35.1903 55.9091C36.0123 55.4394 36.9403 55.2045 37.9744 55.2045C39.0009 55.2045 39.9252 55.4394 40.7472 55.9091C41.5729 56.375 42.2244 57.053 42.7017 57.9432C43.1828 58.8333 43.4233 59.9129 43.4233 61.1818ZM40.929 61.1818C40.929 60.3598 40.8059 59.6667 40.5597 59.1023C40.3172 58.5379 39.9744 58.1098 39.5312 57.8182C39.0881 57.5265 38.5691 57.3807 37.9744 57.3807C37.3797 57.3807 36.8608 57.5265 36.4176 57.8182C35.9744 58.1098 35.6297 58.5379 35.3835 59.1023C35.1411 59.6667 35.0199 60.3598 35.0199 61.1818C35.0199 62.0038 35.1411 62.697 35.3835 63.2614C35.6297 63.8258 35.9744 64.2538 36.4176 64.5455C36.8608 64.8371 37.3797 64.983 37.9744 64.983C38.5691 64.983 39.0881 64.8371 39.5312 64.5455C39.9744 64.2538 40.3172 63.8258 40.5597 63.2614C40.8059 62.697 40.929 62.0038 40.929 61.1818ZM49.1435 67.1705C48.2495 67.1705 47.4806 66.9811 46.8366 66.6023C46.1965 66.2197 45.7041 65.6894 45.3594 65.0114C45.0185 64.3333 44.848 63.553 44.848 62.6705C44.848 61.7765 45.0204 60.9924 45.3651 60.3182C45.7135 59.6402 46.2079 59.1117 46.848 58.733C47.4882 58.3504 48.2495 58.1591 49.1321 58.1591C49.8935 58.1591 50.5601 58.2973 51.1321 58.5739C51.7041 58.8504 52.1567 59.2386 52.4901 59.7386C52.8234 60.2386 53.0071 60.8258 53.0412 61.5H50.7571C50.6927 61.0644 50.5223 60.714 50.2457 60.4489C49.973 60.1799 49.6151 60.0455 49.1719 60.0455C48.7969 60.0455 48.4692 60.1477 48.1889 60.3523C47.9124 60.553 47.6965 60.8466 47.5412 61.233C47.3859 61.6193 47.3082 62.0871 47.3082 62.6364C47.3082 63.1932 47.384 63.6667 47.5355 64.0568C47.6908 64.447 47.9086 64.7443 48.1889 64.9489C48.4692 65.1534 48.7969 65.2557 49.1719 65.2557C49.4484 65.2557 49.6965 65.1989 49.9162 65.0852C50.1397 64.9716 50.3234 64.8068 50.4673 64.5909C50.6151 64.3712 50.7116 64.108 50.7571 63.8011H53.0412C53.0033 64.4678 52.8215 65.0549 52.4957 65.5625C52.1738 66.0663 51.7287 66.4602 51.1605 66.7443C50.5923 67.0284 49.92 67.1705 49.1435 67.1705ZM53.9957 60.1761V58.2727H61.9048V60.1761H59.0923V67H56.7855V60.1761H53.9957ZM65.5483 67.1648C64.9915 67.1648 64.4953 67.0682 64.0597 66.875C63.6241 66.678 63.2794 66.3883 63.0256 66.0057C62.7756 65.6193 62.6506 65.1383 62.6506 64.5625C62.6506 64.0777 62.7396 63.6705 62.9176 63.3409C63.0956 63.0114 63.3381 62.7462 63.6449 62.5455C63.9517 62.3447 64.3002 62.1932 64.6903 62.0909C65.0843 61.9886 65.4972 61.9167 65.929 61.875C66.4366 61.822 66.8456 61.7727 67.1562 61.7273C67.4669 61.678 67.6922 61.6061 67.8324 61.5114C67.9725 61.4167 68.0426 61.2765 68.0426 61.0909V61.0568C68.0426 60.697 67.929 60.4186 67.7017 60.2216C67.4782 60.0246 67.16 59.9261 66.7472 59.9261C66.3116 59.9261 65.965 60.0227 65.7074 60.2159C65.4498 60.4053 65.2794 60.6439 65.196 60.9318L62.9574 60.75C63.071 60.2197 63.2945 59.7614 63.6278 59.375C63.9612 58.9848 64.3911 58.6856 64.9176 58.4773C65.4479 58.2652 66.0616 58.1591 66.7585 58.1591C67.2434 58.1591 67.7074 58.2159 68.1506 58.3295C68.5975 58.4432 68.9934 58.6193 69.3381 58.858C69.6866 59.0966 69.9612 59.4034 70.1619 59.7784C70.3627 60.1496 70.4631 60.5947 70.4631 61.1136V67H68.1676V65.7898H68.0994C67.9593 66.0625 67.7718 66.303 67.5369 66.5114C67.3021 66.7159 67.0199 66.8769 66.6903 66.9943C66.3608 67.108 65.9801 67.1648 65.5483 67.1648ZM66.2415 65.4943C66.5975 65.4943 66.9119 65.4242 67.1847 65.2841C67.4574 65.1402 67.6714 64.947 67.8267 64.7045C67.982 64.4621 68.0597 64.1875 68.0597 63.8807V62.9545C67.9839 63.0038 67.8797 63.0492 67.7472 63.0909C67.6184 63.1288 67.4725 63.1648 67.3097 63.1989C67.1468 63.2292 66.9839 63.2576 66.821 63.2841C66.6581 63.3068 66.5104 63.3277 66.3778 63.3466C66.0938 63.3883 65.8456 63.4545 65.6335 63.5455C65.4214 63.6364 65.2566 63.7595 65.1392 63.9148C65.0218 64.0663 64.9631 64.2557 64.9631 64.483C64.9631 64.8125 65.0824 65.0644 65.321 65.2386C65.5634 65.4091 65.8703 65.4943 66.2415 65.4943ZM72.3409 67V58.2727H76.0625C77.1383 58.2727 77.9886 58.4773 78.6136 58.8864C79.2386 59.2955 79.5511 59.8769 79.5511 60.6307C79.5511 61.1042 79.375 61.4981 79.0227 61.8125C78.6705 62.1269 78.1818 62.339 77.5568 62.4489C78.0795 62.4867 78.5246 62.6061 78.892 62.8068C79.2633 63.0038 79.5455 63.2595 79.7386 63.5739C79.9356 63.8883 80.0341 64.2367 80.0341 64.6193C80.0341 65.1155 79.9015 65.5417 79.6364 65.8977C79.375 66.2538 78.9905 66.5265 78.483 66.7159C77.9792 66.9053 77.3636 67 76.6364 67H72.3409ZM74.5966 65.1875H76.6364C76.9735 65.1875 77.2367 65.108 77.4261 64.9489C77.6193 64.786 77.7159 64.5644 77.7159 64.2841C77.7159 63.9735 77.6193 63.7292 77.4261 63.5511C77.2367 63.3731 76.9735 63.2841 76.6364 63.2841H74.5966V65.1875ZM74.5966 61.8636H76.1136C76.3561 61.8636 76.5625 61.8295 76.733 61.7614C76.9072 61.6894 77.0398 61.5871 77.1307 61.4545C77.2254 61.322 77.2727 61.1648 77.2727 60.983C77.2727 60.714 77.1648 60.5038 76.9489 60.3523C76.733 60.2008 76.4375 60.125 76.0625 60.125H74.5966V61.8636ZM83.8722 63.8068L87.0142 58.2727H89.4006V67H87.0938V61.4489L83.9631 67H81.5597V58.2727H83.8722V63.8068ZM90.4645 60.1761V58.2727H98.3736V60.1761H95.5611V67H93.2543V60.1761H90.4645ZM101.358 60.9545H103.966C105.121 60.9545 106.023 61.2311 106.67 61.7841C107.318 62.3333 107.642 63.0682 107.642 63.9886C107.642 64.5871 107.496 65.1136 107.205 65.5682C106.913 66.0189 106.492 66.3712 105.943 66.625C105.394 66.875 104.735 67 103.966 67H99.8409V58.2727H102.153V65.0966H103.966C104.371 65.0966 104.705 64.9943 104.966 64.7898C105.227 64.5852 105.36 64.3239 105.364 64.0057C105.36 63.6686 105.227 63.3939 104.966 63.1818C104.705 62.9659 104.371 62.858 103.966 62.858H101.358V60.9545ZM42.9858 83.5284H45.3324C45.3438 83.8163 45.4725 84.0436 45.7188 84.2102C45.965 84.3769 46.2831 84.4602 46.6733 84.4602C47.0672 84.4602 47.3987 84.3693 47.6676 84.1875C47.9366 84.0019 48.071 83.7367 48.071 83.392C48.071 83.1799 48.018 82.9962 47.9119 82.8409C47.8059 82.6818 47.6581 82.5568 47.4688 82.4659C47.2794 82.375 47.0597 82.3295 46.8097 82.3295H45.554V80.7443H46.8097C47.1847 80.7443 47.4725 80.6572 47.6733 80.483C47.8778 80.3087 47.9801 80.0909 47.9801 79.8295C47.9801 79.5341 47.8741 79.2973 47.6619 79.1193C47.4536 78.9375 47.1714 78.8466 46.8153 78.8466C46.4555 78.8466 46.1563 78.928 45.9176 79.0909C45.6828 79.25 45.5616 79.4583 45.554 79.7159H43.2188C43.2263 79.1932 43.3835 78.7405 43.6903 78.358C44.0009 77.9754 44.4176 77.6799 44.9403 77.4716C45.4669 77.2633 46.0559 77.1591 46.7074 77.1591C47.4195 77.1591 48.0331 77.2595 48.5483 77.4602C49.0672 77.6572 49.465 77.9394 49.7415 78.3068C50.0218 78.6742 50.1619 79.1117 50.1619 79.6193C50.1619 80.0814 50.0104 80.4678 49.7074 80.7784C49.4044 81.089 48.9801 81.3106 48.4347 81.4432V81.5341C48.7945 81.5568 49.1203 81.6534 49.4119 81.8239C49.7036 81.9943 49.9366 82.2292 50.1108 82.5284C50.285 82.8239 50.3722 83.1742 50.3722 83.5795C50.3722 84.1212 50.2131 84.5852 49.8949 84.9716C49.5805 85.358 49.1449 85.6553 48.5881 85.8636C48.035 86.0682 47.4006 86.1705 46.6847 86.1705C45.9877 86.1705 45.3627 86.0701 44.8097 85.8693C44.2604 85.6648 43.8229 85.3655 43.4972 84.9716C43.1752 84.5777 43.0047 84.0966 42.9858 83.5284ZM54.3452 86.1648C53.7884 86.1648 53.2921 86.0682 52.8565 85.875C52.4209 85.678 52.0762 85.3883 51.8224 85.0057C51.5724 84.6193 51.4474 84.1383 51.4474 83.5625C51.4474 83.0777 51.5365 82.6705 51.7145 82.3409C51.8925 82.0114 52.1349 81.7462 52.4418 81.5455C52.7486 81.3447 53.0971 81.1932 53.4872 81.0909C53.8812 80.9886 54.294 80.9167 54.7259 80.875C55.2334 80.822 55.6425 80.7727 55.9531 80.7273C56.2637 80.678 56.4891 80.6061 56.6293 80.5114C56.7694 80.4167 56.8395 80.2765 56.8395 80.0909V80.0568C56.8395 79.697 56.7259 79.4186 56.4986 79.2216C56.2751 79.0246 55.9569 78.9261 55.544 78.9261C55.1084 78.9261 54.7618 79.0227 54.5043 79.2159C54.2467 79.4053 54.0762 79.6439 53.9929 79.9318L51.7543 79.75C51.8679 79.2197 52.0914 78.7614 52.4247 78.375C52.758 77.9848 53.188 77.6856 53.7145 77.4773C54.2448 77.2652 54.8584 77.1591 55.5554 77.1591C56.0402 77.1591 56.5043 77.2159 56.9474 77.3295C57.3944 77.4432 57.7902 77.6193 58.1349 77.858C58.4834 78.0966 58.758 78.4034 58.9588 78.7784C59.1596 79.1496 59.2599 79.5947 59.2599 80.1136V86H56.9645V84.7898H56.8963C56.7562 85.0625 56.5687 85.303 56.3338 85.5114C56.099 85.7159 55.8168 85.8769 55.4872 85.9943C55.1577 86.108 54.777 86.1648 54.3452 86.1648ZM55.0384 84.4943C55.3944 84.4943 55.7088 84.4242 55.9815 84.2841C56.2543 84.1402 56.4683 83.947 56.6236 83.7045C56.7789 83.4621 56.8565 83.1875 56.8565 82.8807V81.9545C56.7808 82.0038 56.6766 82.0492 56.544 82.0909C56.4152 82.1288 56.2694 82.1648 56.1065 82.1989C55.9437 82.2292 55.7808 82.2576 55.6179 82.2841C55.455 82.3068 55.3073 82.3277 55.1747 82.3466C54.8906 82.3883 54.6425 82.4545 54.4304 82.5455C54.2183 82.6364 54.0535 82.7595 53.9361 82.9148C53.8187 83.0663 53.7599 83.2557 53.7599 83.483C53.7599 83.8125 53.8793 84.0644 54.1179 84.2386C54.3603 84.4091 54.6671 84.4943 55.0384 84.4943ZM66.2514 86V79.1705H64.6151C64.1719 79.1705 63.8348 79.2727 63.6037 79.4773C63.3726 79.6818 63.259 79.9242 63.2628 80.2045C63.259 80.4886 63.3688 80.7292 63.5923 80.9261C63.8196 81.1193 64.1529 81.2159 64.5923 81.2159H67.0582V82.8523H64.5923C63.8461 82.8523 63.2003 82.7386 62.6548 82.5114C62.1094 82.2841 61.6889 81.9678 61.3935 81.5625C61.098 81.1534 60.9522 80.678 60.956 80.1364C60.9522 79.5682 61.098 79.0701 61.3935 78.642C61.6889 78.2102 62.1113 77.875 62.6605 77.6364C63.2135 77.3939 63.8651 77.2727 64.6151 77.2727H68.5071V86H66.2514ZM60.706 86L63.1321 81.4545H65.4446L63.0241 86H60.706ZM70.3878 86V77.2727H74.1094C75.1851 77.2727 76.0355 77.4773 76.6605 77.8864C77.2855 78.2955 77.598 78.8769 77.598 79.6307C77.598 80.1042 77.4219 80.4981 77.0696 80.8125C76.7173 81.1269 76.2287 81.339 75.6037 81.4489C76.1264 81.4867 76.5715 81.6061 76.9389 81.8068C77.3101 82.0038 77.5923 82.2595 77.7855 82.5739C77.9825 82.8883 78.081 83.2367 78.081 83.6193C78.081 84.1155 77.9484 84.5417 77.6832 84.8977C77.4219 85.2538 77.0374 85.5265 76.5298 85.7159C76.026 85.9053 75.4105 86 74.6832 86H70.3878ZM72.6435 84.1875H74.6832C75.0204 84.1875 75.2836 84.108 75.473 83.9489C75.6662 83.786 75.7628 83.5644 75.7628 83.2841C75.7628 82.9735 75.6662 82.7292 75.473 82.5511C75.2836 82.3731 75.0204 82.2841 74.6832 82.2841H72.6435V84.1875ZM72.6435 80.8636H74.1605C74.4029 80.8636 74.6094 80.8295 74.7798 80.7614C74.9541 80.6894 75.0866 80.5871 75.1776 80.4545C75.2723 80.322 75.3196 80.1648 75.3196 79.983C75.3196 79.714 75.2116 79.5038 74.9957 79.3523C74.7798 79.2008 74.4844 79.125 74.1094 79.125H72.6435V80.8636ZM79.6065 86V77.2727H82.027V80.6591H82.7088L85.0838 77.2727H87.9247L84.8395 81.6023L87.9588 86H85.0838L82.9304 82.9034H82.027V86H79.6065ZM90.6165 89.2727C90.3097 89.2727 90.0218 89.2481 89.7528 89.1989C89.4877 89.1534 89.268 89.0947 89.0938 89.0227L89.6392 87.2159C89.9233 87.303 90.179 87.3504 90.4062 87.358C90.6373 87.3655 90.8362 87.3125 91.0028 87.1989C91.1733 87.0852 91.3116 86.892 91.4176 86.6193L91.5597 86.25L88.429 77.2727H90.9744L92.7812 83.6818H92.8722L94.696 77.2727H97.2585L93.8665 86.9432C93.7036 87.4129 93.482 87.822 93.2017 88.1705C92.9252 88.5227 92.5748 88.7936 92.1506 88.983C91.7263 89.1761 91.215 89.2727 90.6165 89.2727Z" fill="#212864"/>
</g>
</svg>
